<?xml version="1.0" standalone="no"?>
<!DOCTYPE svg PUBLIC "-//W3C//DTD SVG 1.1//EN" "http://www.w3.org/Graphics/SVG/1.1/DTD/svg11.dtd" >
<svg xmlns="http://www.w3.org/2000/svg">
<metadata>
This is a custom SVG webfont generated by Font Squirrel.
Copyright   : Copyright c 1991 Adobe Systems Incorporated  All Rights ReservedFrutiger is a trademark of LinotypeHell AG andor its subsidiaries
</metadata>
<defs>
<font id="FrutigerBold" horiz-adv-x="1024" >
<font-face units-per-em="2048" ascent="1638" descent="-410" />
<missing-glyph horiz-adv-x="532" />
<glyph unicode=" "  horiz-adv-x="532" />
<glyph unicode="&#x09;" horiz-adv-x="532" />
<glyph unicode="&#xa0;" horiz-adv-x="532" />
<glyph unicode="!" horiz-adv-x="757" d="M248 1430l33 -1008h196l33 1008h-262zM256 0h246v258h-246v-258z" />
<glyph unicode="&#x22;" horiz-adv-x="1062" d="M262 1028h205v508h-205v-508zM596 1028h205v508h-205v-508z" />
<glyph unicode="#" horiz-adv-x="1064" d="M20 422h191l-59 -422h159l60 422h241l-59 -422h160l59 422h213v160h-190l36 266h213v160h-190l59 422h-159l-60 -422h-241l59 422h-160l-59 -422h-215v-160h192l-37 -266h-213v-160zM393 582l37 266h242l-37 -266h-242z" />
<glyph unicode="$" horiz-adv-x="1064" d="M102 1040q0 -70 21.5 -124t60.5 -98t93.5 -76.5t117.5 -59.5l82 -33v-483q-96 4 -178 34.5t-147 75.5l-17 -233q47 -20 129 -39.5t213 -23.5v-175h94v179q176 10 284 122.5t108 335.5q0 123 -61.5 211t-196.5 140l-123 47v424q92 -2 163.5 -27t128.5 -63l15 215 q-37 16 -115 37.5t-192 23.5v162h-95v-166q-80 -6 -149.5 -36t-121.5 -80t-83 -123t-31 -167zM332 1085q0 27 7 54.5t25.5 52.5t48 43t74.5 25v-381q-49 23 -79.5 48t-48 53t-22.5 54t-5 51zM571 170v440l17 -6q43 -18 72.5 -35.5t48 -42t25.5 -59.5t7 -86q0 -78 -42 -138.5 t-128 -72.5z" />
<glyph unicode="%" horiz-adv-x="1705" d="M106 1044q0 -195 77 -300t220 -105t220 105.5t77 299.5q0 195 -76.5 300.5t-220.5 105.5q-143 0 -220 -105.5t-77 -300.5zM287 1044q0 262 116 263q117 0 117 -263q0 -262 -117 -262q-116 0 -116 262zM453 -70h159l648 1569h-160zM1006 385q0 -195 76.5 -300t220.5 -105 q143 0 219.5 105t76.5 300t-76.5 300.5t-219.5 105.5t-220 -105.5t-77 -300.5zM1186 385q0 262 117 262t116 -262q0 -262 -116 -262q-117 0 -117 262z" />
<glyph unicode="&#x26;" horiz-adv-x="1327" d="M94 395q0 -82 28 -157.5t86 -133t146 -91t209 -33.5q68 0 118 11t89 31.5t70.5 48t64.5 60.5l103 -131h278l-225 287q45 55 77.5 120.5t53 133t30 133t9.5 121.5h-230q0 -78 -15 -166t-62 -160l-226 293q37 25 83 60.5t86 81.5t68 104.5t28 130.5q0 53 -19.5 108.5 t-62.5 100.5t-113 73.5t-168 28.5q-109 0 -182.5 -32t-120.5 -81t-67.5 -106t-20.5 -107q0 -55 13.5 -99t35 -82t49 -70.5t53.5 -65.5q-35 -16 -81 -48t-86.5 -81t-69.5 -119t-29 -164zM348 406q0 100 45 157.5t105 93.5l288 -376q-37 -47 -91 -78t-122 -31 q-35 0 -74.5 14.5t-73.5 44t-55.5 73t-21.5 102.5zM430 1135q0 72 46 113.5t112 41.5t109.5 -36.5t43.5 -106.5q0 -45 -17 -82t-43 -68.5t-57.5 -56.5t-62.5 -45q-20 23 -42.5 48.5t-42 55t-33 63.5t-13.5 73z" />
<glyph unicode="'" horiz-adv-x="532" d="M164 1028h205v508h-205v-508z" />
<glyph unicode="(" horiz-adv-x="606" d="M90 573q0 -147 24.5 -270t64.5 -233.5t90 -212t104 -201.5h196q-113 207 -185.5 443.5t-72.5 473.5q0 238 73 474.5t185 443.5h-196q-53 -102 -103.5 -202.5t-90.5 -211t-64.5 -234t-24.5 -270.5z" />
<glyph unicode=")" horiz-adv-x="606" d="M37 -344h196q51 100 102.5 201.5t91.5 212t64.5 233.5t24.5 270t-24.5 270.5t-64.5 234t-91 211t-103 202.5h-196q113 -207 185.5 -443.5t72.5 -474.5t-72.5 -474t-185.5 -443z" />
<glyph unicode="*" horiz-adv-x="1062" d="M170 1098l258 -62l-176 -211l160 -108l123 241l122 -241l160 108l-178 211l256 62l-61 182l-234 -119l33 269h-197l35 -269l-238 119z" />
<glyph unicode="+" horiz-adv-x="1228" d="M96 428h428v-428h181v428h428v180h-428v428h-181v-428h-428v-180z" />
<glyph unicode="," horiz-adv-x="532" d="M37 -246h196l156 508h-246z" />
<glyph unicode="-" horiz-adv-x="645" d="M86 477h473v209h-473v-209z" />
<glyph unicode="." horiz-adv-x="532" d="M143 0h246v266h-246v-266z" />
<glyph unicode="/" horiz-adv-x="569" d="M16 -20h172l365 1470h-180z" />
<glyph unicode="0" horiz-adv-x="1064" d="M82 715q0 -133 18.5 -264.5t68.5 -235.5t137 -169.5t226 -65.5t227.5 65.5t137.5 169.5t67.5 235.5t18.5 264.5q0 131 -18.5 263t-67.5 236.5t-137 170t-228 65.5q-139 0 -226 -65.5t-137 -170t-68.5 -236.5t-18.5 -263zM336 715q0 119 8 218t29.5 171t60.5 112.5 t98 40.5q61 0 99.5 -40.5t60 -112.5t29.5 -171t8 -218t-8 -218.5t-29.5 -172t-59.5 -112.5t-100 -40q-59 0 -98 40t-60.5 112.5t-29.5 172t-8 218.5z" />
<glyph unicode="1" horiz-adv-x="1064" d="M168 1126l121 -176l190 178v-1128h254v1430h-217z" />
<glyph unicode="2" horiz-adv-x="1064" d="M127 0h811v209h-520l51 55q90 98 172 199.5t145.5 204t100.5 204t37 197.5q0 78 -21.5 147.5t-71 122t-128 82t-191.5 29.5q-135 0 -220 -26.5t-134 -55.5l22 -235q18 14 44 32.5t59.5 36t79 28.5t104.5 11q86 0 140.5 -55.5t54.5 -157.5q0 -80 -38 -166t-98.5 -174 t-137.5 -178t-155 -178l-106 -121v-211z" />
<glyph unicode="3" horiz-adv-x="1064" d="M102 41q68 -23 151 -42t189 -19q98 0 187.5 26.5t158 79.5t109.5 133t41 189q0 96 -28.5 156.5t-71.5 98t-96.5 57t-102.5 34.5v4q35 4 82 21.5t90 54t73.5 98t30.5 158.5q0 88 -31.5 154.5t-88 112.5t-135 69.5t-173.5 23.5q-123 0 -206.5 -21.5t-137.5 -37.5l15 -220 q66 31 136.5 50.5t135.5 19.5q45 0 86 -11t74 -35t52.5 -59.5t19.5 -84.5q0 -68 -29 -110t-76 -65.5t-106.5 -32.5t-120.5 -9h-43v-199q43 6 104 6q49 0 98.5 -10t89 -35t64.5 -67t25 -103q0 -113 -75 -175.5t-187 -62.5q-104 0 -176 26t-113 46z" />
<glyph unicode="4" horiz-adv-x="1064" d="M61 297h545v-297h238v297h160v192h-160v941h-287l-496 -895v-238zM250 489l352 678h4v-678h-356z" />
<glyph unicode="5" horiz-adv-x="1064" d="M135 39q51 -16 135 -37.5t195 -21.5t201 33.5t152.5 98t97 156.5t34.5 211q0 104 -31.5 186.5t-85 138.5t-126 86t-154.5 30q-57 0 -96 -5.5t-66 -13.5v328h494v201h-723v-742q33 10 91 27.5t146 17.5q76 0 130.5 -21.5t89 -58.5t52 -85t17.5 -101q0 -123 -70.5 -201 t-199.5 -78q-90 0 -151.5 20.5t-114.5 49.5z" />
<glyph unicode="6" horiz-adv-x="1064" d="M90 647q0 -139 21.5 -260t75 -212t142.5 -143t226 -52q100 0 179 32.5t132.5 94t81 147.5t27.5 192q0 117 -32 204t-84 145.5t-120.5 87t-144.5 28.5q-104 0 -164.5 -42t-97.5 -101l-4 4q2 66 16 149t49 155.5t98.5 122.5t167.5 50q86 0 142.5 -22.5t93.5 -38.5l14 213 q-37 14 -101.5 31.5t-162.5 17.5q-164 0 -271.5 -66.5t-171 -177t-88 -256t-24.5 -303.5zM352 442q0 123 46 196t139 73q98 0 141 -76t43 -193q0 -127 -43 -198.5t-141 -71.5q-96 0 -140.5 71.5t-44.5 198.5z" />
<glyph unicode="7" horiz-adv-x="1064" d="M127 1221h565l-465 -1221h283l428 1200v230h-811v-209z" />
<glyph unicode="8" horiz-adv-x="1064" d="M82 377q0 -84 30.5 -157t89 -126t140.5 -83.5t186 -30.5q96 0 179.5 24.5t144.5 74.5t96 127t35 179q0 125 -64.5 209t-156.5 133l-53 29q104 53 168.5 140t64.5 206q0 86 -34 150.5t-90 108.5t-130 66.5t-151 22.5q-90 0 -166 -24.5t-131.5 -72.5t-86 -119t-30.5 -163 q0 -125 60.5 -201.5t166.5 -130.5l-71 -34q-84 -41 -140.5 -125t-56.5 -203zM336 379q0 82 32.5 137t100.5 102l49 35l53 -32q86 -49 122 -99.5t36 -134.5q0 -98 -49 -159.5t-148 -61.5q-96 0 -146 60.5t-50 152.5zM360 1067q0 92 50.5 144.5t126.5 52.5q90 0 129 -49.5 t39 -137.5q0 -47 -14.5 -84t-38 -66.5t-50.5 -53t-51 -44.5q-35 20 -68.5 44t-61.5 51.5t-44.5 62.5t-16.5 80z" />
<glyph unicode="9" horiz-adv-x="1064" d="M90 983q0 -117 32 -204t84 -145.5t120.5 -87t144.5 -28.5q104 0 164.5 42t97.5 102l4 -5q-4 -66 -17 -148.5t-48 -155t-98.5 -123t-167.5 -50.5q-86 0 -142.5 22.5t-93.5 39.5l-14 -213q37 -14 101.5 -31.5t162.5 -17.5q164 0 271.5 66.5t170 177t88 256t25.5 302.5 q0 137 -21.5 259t-75 213.5t-142.5 143.5t-226 52q-102 0 -180 -33t-131.5 -94t-81 -147.5t-27.5 -192.5zM344 987q0 127 43 198.5t141 71.5q96 0 140.5 -71.5t44.5 -198.5q0 -123 -46 -195.5t-139 -72.5q-98 0 -141 75.5t-43 192.5z" />
<glyph unicode=":" horiz-adv-x="532" d="M143 0h246v266h-246v-266zM143 788h246v267h-246v-267z" />
<glyph unicode=";" horiz-adv-x="532" d="M37 -246h196l156 508h-246zM143 788h246v267h-246v-267z" />
<glyph unicode="&#x3c;" horiz-adv-x="1228" d="M96 438l1037 -454v180l-807 354l807 356v181l-1037 -457v-160z" />
<glyph unicode="=" horiz-adv-x="1228" d="M96 213h1037v180h-1037v-180zM96 643h1037v180h-1037v-180z" />
<glyph unicode="&#x3e;" horiz-adv-x="1228" d="M96 -16l1037 454v160l-1037 457v-181l807 -356l-807 -354v-180z" />
<glyph unicode="?" horiz-adv-x="948" d="M139 1395l13 -224q31 20 96 45t139 25q86 0 147.5 -52t61.5 -155q0 -72 -37 -136t-82 -128q-47 -66 -85 -131.5t-38 -138.5v-82h221v28q0 80 44.5 155t97.5 155q53 78 97 164t44 186q0 76 -27.5 139.5t-80 108.5t-129 70.5t-175.5 25.5q-111 0 -193.5 -21.5t-113.5 -33.5 zM342 0h246v258h-246v-258z" />
<glyph unicode="@" horiz-adv-x="1638" d="M84 715q0 -176 59.5 -312.5t164 -230.5t245.5 -143t305 -49q188 0 352 85t265 238h-152q-76 -86 -196.5 -133t-260.5 -47q-131 0 -242.5 38t-193.5 111.5t-128 183t-46 255.5q0 125 43 233.5t121 189t186.5 127t241.5 46.5q113 0 214 -32t177 -94.5t120 -154.5t44 -211 q0 -78 -23.5 -147.5t-59.5 -121.5t-79 -82t-84 -30q-53 0 -53 51q0 18 7 46t13 51l138 505h-152l-33 -106q-41 76 -104.5 107.5t-134.5 31.5q-86 0 -167 -38t-142.5 -105.5t-98.5 -162.5t-37 -210q0 -70 19.5 -129t54.5 -103t85 -68.5t112 -24.5q86 0 152.5 35.5t109.5 78.5 h4q4 -59 40 -86.5t83 -27.5q59 0 145 33.5t165 104t135 177t56 252.5q0 137 -56 248.5t-151.5 190.5t-224.5 122t-272 43q-160 0 -299 -52t-243.5 -148.5t-164 -232.5t-59.5 -302zM573 631q0 63 20.5 120.5t54.5 101.5t79 69.5t96 25.5q88 0 136.5 -48t48.5 -122 q0 -53 -19.5 -111.5t-55.5 -106.5t-86 -78.5t-112 -30.5q-72 0 -117 50t-45 130z" />
<glyph unicode="A" horiz-adv-x="1251" d="M12 0h262l103 344h491l101 -344h270l-461 1430h-286zM432 545l197 667h4l180 -667h-381z" />
<glyph unicode="B" horiz-adv-x="1138" d="M152 0h436q94 0 176 26.5t141.5 77t93 125t33.5 172.5q0 90 -26.5 151.5t-66.5 100.5t-88 59.5t-89 30.5v5q35 12 77 33.5t77.5 58.5t59 94t23.5 143q0 182 -103 267.5t-327 85.5h-417v-1430zM406 201v438h137q121 0 174 -62.5t53 -156.5q0 -100 -56.5 -159.5 t-162.5 -59.5h-145zM406 831v406h129q94 0 152 -50t58 -143q0 -88 -53 -150.5t-151 -62.5h-135z" />
<glyph unicode="C" horiz-adv-x="1138" d="M94 715q0 -158 42 -292t124 -232.5t205 -154.5t287 -56q98 0 183 14t126 37l-14 239q-45 -33 -110 -53t-161 -20q-82 0 -154.5 28.5t-128 91t-88 160.5t-32.5 238q0 139 32.5 237.5t88 161t128 91t154.5 28.5q100 0 165 -28.5t106 -49.5l14 236q-41 16 -124 37.5 t-194 21.5q-160 0 -281.5 -56.5t-202.5 -154.5t-123 -233t-42 -291z" />
<glyph unicode="D" horiz-adv-x="1290" d="M139 0h373q150 0 274.5 44t216 133t142.5 223.5t51 314.5q0 356 -173 535.5t-511 179.5h-373v-1430zM401 201v1028h88q111 0 192 -36t133 -103.5t78 -163t26 -211.5q0 -117 -26 -212t-78 -163t-133 -103.5t-192 -35.5h-88z" />
<glyph unicode="E" d="M152 0h772v209h-510v422h463v209h-463v381h489v209h-751v-1430z" />
<glyph unicode="F" horiz-adv-x="948" d="M152 0h262v623h440v208h-440v390h460v209h-722v-1430z" />
<glyph unicode="G" horiz-adv-x="1327" d="M94 715q0 -160 45 -294t134 -232.5t220.5 -153.5t303.5 -55q141 0 236 22.5t151 50.5v748h-463v-201h217v-385q-27 -10 -65.5 -18.5t-86.5 -8.5q-100 0 -178 37t-130 105.5t-78.5 166t-26.5 218.5q0 111 27.5 207t82 166.5t134 111.5t184.5 41q98 0 182 -24.5t147 -63.5 l15 236q-41 18 -133 39.5t-215 21.5q-172 0 -303.5 -55.5t-220.5 -153.5t-134 -232t-45 -294z" />
<glyph unicode="H" horiz-adv-x="1251" d="M152 0h262v631h424v-631h262v1430h-262v-582h-424v582h-262v-1430z" />
<glyph unicode="I" horiz-adv-x="569" d="M154 0h262v1430h-262v-1430z" />
<glyph unicode="J" horiz-adv-x="720" d="M41 14q35 -16 88 -25t100 -9q72 0 136.5 24.5t113.5 77.5t78 136t29 200v1012h-262v-1010q0 -43 -7.5 -80t-26 -65.5t-50 -45t-78.5 -16.5q-41 0 -70 8t-51 19v-226z" />
<glyph unicode="K" horiz-adv-x="1175" d="M152 0h262v672h6l430 -672h317l-524 756l485 674h-301l-407 -607h-6v607h-262v-1430z" />
<glyph unicode="L" horiz-adv-x="909" d="M139 0h733v209h-471v1221h-262v-1430z" />
<glyph unicode="M" horiz-adv-x="1669" d="M150 0h237v1192h4l342 -1192h187l358 1192h4v-1192h238v1430h-379l-301 -1068h-4l-295 1068h-391v-1430z" />
<glyph unicode="N" horiz-adv-x="1327" d="M150 0h237v1114h4l473 -1114h314v1430h-238v-1123h-4l-475 1123h-311v-1430z" />
<glyph unicode="O" horiz-adv-x="1327" d="M94 715q0 -193 47 -332t126 -228t182.5 -132t214.5 -43t214 43t182 132t126 228t47 332t-47 332t-126 228t-182.5 132t-213.5 43q-111 0 -214.5 -43t-182.5 -132t-126 -228t-47 -332zM365 715q0 147 23.5 249.5t63.5 165t95 91t117 28.5q61 0 116.5 -28.5t95 -91 t63.5 -165t24 -249.5t-24 -250t-63.5 -165t-95 -91t-116.5 -29t-116.5 29t-95.5 91t-63.5 165t-23.5 250z" />
<glyph unicode="P" horiz-adv-x="1062" d="M139 0h262v559h148q223 0 335.5 116t112.5 320q0 205 -112.5 320t-335.5 115h-410v-1430zM401 760v469h99q123 0 179 -58.5t56 -175.5t-56 -176t-179 -59h-99z" />
<glyph unicode="Q" horiz-adv-x="1327" d="M94 715q0 -193 47 -332t126 -228t182.5 -132t214.5 -43h45l200 -252h301l-282 319q66 37 122 96.5t97 142.5t63.5 189.5t22.5 239.5q0 193 -47 332t-126 228t-182.5 132t-213.5 43q-111 0 -214.5 -43t-182.5 -132t-126 -228t-47 -332zM365 715q0 147 23.5 249.5t63.5 165 t95 91t117 28.5q61 0 116.5 -28.5t95 -91t63.5 -165t24 -249.5t-24 -250t-63.5 -165t-95 -91t-116.5 -29t-116.5 29t-95.5 91t-63.5 165t-23.5 250z" />
<glyph unicode="R" horiz-adv-x="1138" d="M139 0h262v614h60q72 0 122 -31.5t76 -117.5l142 -465h278l-186 545q-16 49 -35.5 80.5t-40 49t-41 25t-41.5 11.5v6q121 18 199 106t78 230q0 98 -31 168.5t-87 116.5t-135 69t-173 23h-447v-1430zM401 807v422h107q111 0 172 -41t61 -164q0 -111 -64.5 -164t-168.5 -53 h-107z" />
<glyph unicode="S" d="M100 1061q0 -139 63.5 -227.5t170.5 -147.5l133 -74q47 -27 82 -49t58.5 -46.5t34.5 -53.5t11 -68q0 -53 -17.5 -92t-48 -64.5t-69.5 -38t-82 -12.5q-104 0 -184 32t-119 56l-14 -233q106 -63 325 -63q102 0 189.5 26.5t152 79.5t101.5 134t37 190q0 76 -15.5 132 t-46.5 100t-77 81t-109 72l-154 86q-31 16 -57.5 33.5t-48 39t-33.5 50t-12 69.5q0 74 50 121t148 47q92 0 157 -21.5t112 -39.5l12 219q-31 10 -107.5 30.5t-191.5 20.5q-90 0 -172 -24.5t-143.5 -73.5t-98.5 -122t-37 -169z" />
<glyph unicode="T" horiz-adv-x="985" d="M43 1221h319v-1221h263v1221h317v209h-899v-209z" />
<glyph unicode="U" horiz-adv-x="1251" d="M139 504q0 -141 38 -240.5t104.5 -163t154.5 -92t191 -28.5q100 0 188 28.5t154.5 92t104.5 162.5t38 241v926h-262v-926q0 -178 -55.5 -247t-167.5 -69q-115 0 -170.5 69t-55.5 247v926h-262v-926z" />
<glyph unicode="V" horiz-adv-x="1175" d="M16 1430l430 -1430h277l436 1430h-270l-297 -1102h-4l-289 1102h-283z" />
<glyph unicode="W" horiz-adv-x="1705" d="M29 1430l288 -1430h310l225 1171h4l213 -1171h313l295 1430h-237l-209 -1102h-4l-213 1102h-320l-215 -1102h-4l-201 1102h-245z" />
<glyph unicode="X" horiz-adv-x="1175" d="M12 0h289l297 532l266 -532h299l-413 758l385 672h-281l-264 -461l-225 461h-302l375 -672z" />
<glyph unicode="Y" horiz-adv-x="1138" d="M16 1430l422 -857v-573h262v567l422 863h-282l-262 -572l-279 572h-283z" />
<glyph unicode="Z" d="M74 0h876v209h-577l569 1003v218h-852v-209h547l-563 -992v-229z" />
<glyph unicode="[" horiz-adv-x="606" d="M152 -344h372v160h-176v1515h176v160h-372v-1835z" />
<glyph unicode="\" horiz-adv-x="569" d="M16 1450l365 -1470h172l-356 1470h-181z" />
<glyph unicode="]" horiz-adv-x="606" d="M82 -184v-160h373v1835h-373v-160h176v-1515h-176z" />
<glyph unicode="^" horiz-adv-x="1228" d="M123 602h180l311 641l312 -641h180l-406 828h-172z" />
<glyph unicode="_" d="M0 -154v-102h1024v102h-1024z" />
<glyph unicode="`" horiz-adv-x="454" d="M-20 1466l208 -295h160l-131 295h-237z" />
<glyph unicode="a" d="M59 293q0 -74 27 -131.5t70 -97t100 -60t119 -20.5q113 0 180.5 47t114.5 112h4q0 -39 2 -75.5t12 -67.5h230q-4 31 -9.5 80t-5.5 106v461q0 98 -17.5 177t-61.5 134.5t-122.5 84t-201.5 28.5q-121 0 -201 -26.5t-133 -51.5l14 -205q18 14 48 33t68 34t82 25.5t91 10.5 q55 0 92 -16.5t60.5 -44t34 -64.5t10.5 -76v-39h-52q-121 0 -222 -15t-175 -56t-116 -111t-42 -176zM297 317q0 115 91 157t255 42h23v-59q0 -141 -46.5 -221t-160.5 -80q-74 0 -118 44.5t-44 116.5z" />
<glyph unicode="b" horiz-adv-x="1099" d="M111 0h237q4 23 6 67t2 97h6q14 -35 38 -66.5t56.5 -57.5t79 -41t107.5 -15q98 0 169 44t115 117.5t65.5 172t21.5 208.5q0 260 -96.5 402.5t-268.5 142.5q-57 0 -101 -14.5t-78 -39t-56.5 -54t-36.5 -60.5h-4v633h-254v-1356q0 -57 -2 -104t-6 -76zM373 530 q0 76 11 141.5t34.5 112.5t60.5 74t90 27q106 0 148.5 -95.5t42.5 -252.5q0 -184 -38 -275.5t-149 -91.5q-55 0 -94 28.5t-62.5 78t-33.5 114.5t-10 139z" />
<glyph unicode="c" horiz-adv-x="872" d="M86 526q0 -113 28.5 -211t89 -171.5t154 -116.5t224.5 -43q78 0 141 13t108 30l-14 200q-27 -16 -80 -33.5t-100 -17.5q-74 0 -128 26.5t-90 74t-53.5 111t-17.5 136.5q0 170 65.5 262.5t211.5 92.5q53 0 98 -17.5t80 -34.5l14 201q-35 14 -98.5 28.5t-122.5 14.5 q-133 0 -229.5 -43t-159 -116.5t-92 -173t-29.5 -212.5z" />
<glyph unicode="d" horiz-adv-x="1099" d="M86 526q0 -111 21.5 -209t65.5 -171.5t114.5 -117.5t169.5 -44q61 0 107 15t79 41t55.5 57.5t38.5 66.5h6q0 -53 2.5 -97t6.5 -67h237q-4 29 -6 76t-2 104v1356h-254v-633h-4q-14 31 -36.5 60.5t-56.5 54t-78 39t-101 14.5q-172 0 -268.5 -142.5t-96.5 -402.5zM340 537 q0 158 42 253t148 95q51 0 89 -27t62 -74t35 -112.5t11 -141.5q0 -74 -10 -139t-34 -114.5t-62.5 -78t-94.5 -28.5q-111 0 -148.5 91.5t-37.5 275.5z" />
<glyph unicode="e" d="M86 512q0 -106 28.5 -202.5t88 -168t151.5 -114.5t219 -43q115 0 195 25.5t121 41.5l-12 201q-35 -27 -97.5 -54.5t-179.5 -27.5q-147 0 -207.5 77t-60.5 212h610v49q0 162 -34 269.5t-92 173t-134 93t-162 27.5q-100 0 -181 -43t-137.5 -118.5t-86 -177t-29.5 -220.5z M332 618q0 51 10 102.5t33.5 90.5t59.5 63.5t85 24.5q176 0 176 -281h-364z" />
<glyph unicode="f" horiz-adv-x="681" d="M20 868h177v-868h254v868h192v187h-192v182q0 59 32.5 95t87.5 36q29 0 53.5 -5t47.5 -11l10 184q-37 8 -84 16.5t-98 8.5q-86 0 -144.5 -25t-94.5 -64.5t-50 -92t-14 -109.5v-215h-177v-187z" />
<glyph unicode="g" horiz-adv-x="1099" d="M86 524q0 -160 37 -262t92 -160.5t119.5 -80t120.5 -21.5q61 0 107 16.5t79 42t54.5 57t37.5 62.5h4v-100q0 -61 -10 -121.5t-40 -107t-84 -75t-144 -28.5q-100 0 -183 33t-129 57l-14 -225q47 -16 141.5 -41t221.5 -25q145 0 239 42t149.5 117t77 179.5t21.5 227.5v778 q0 41 2 83t6 83h-229q-2 -41 -5 -82t-3 -82h-9q-20 35 -44.5 67.5t-57.5 57t-76 40t-100 15.5q-104 0 -176 -45t-118 -120t-66.5 -174t-20.5 -208zM348 539q0 162 42 250t142 90h5q89 0 144 -85q56 -87 56 -253q0 -180 -51 -267.5t-172 -87.5q-33 0 -62.5 20.5t-53 63.5 t-37 110t-13.5 159z" />
<glyph unicode="h" horiz-adv-x="1062" d="M115 0h254v614q0 51 9 96.5t30.5 79t56.5 53t84 19.5q78 0 111.5 -53t33.5 -176v-633h254v680q0 80 -15 150.5t-51 125t-95.5 85t-149.5 30.5q-59 0 -101 -14.5t-72 -37t-51.5 -49t-37.5 -50.5h-6v616h-254v-1536z" />
<glyph unicode="i" horiz-adv-x="532" d="M135 1253h262v250h-262v-250zM139 0h254v1055h-254v-1055z" />
<glyph unicode="j" horiz-adv-x="532" d="M-37 -442q31 -4 71 -8.5t85 -4.5q82 0 135 24.5t84 76t43 129.5t12 182v1098h-254v-1139q0 -61 -6 -96t-18.5 -53.5t-29.5 -23.5t-38 -5q-23 0 -41 4t-35 8zM135 1253h262v250h-262v-250z" />
<glyph unicode="k" d="M115 0h254v514h6l319 -514h295l-405 578l370 477h-270l-309 -422h-6v903h-254v-1536z" />
<glyph unicode="l" horiz-adv-x="532" d="M139 0h254v1536h-254v-1536z" />
<glyph unicode="m" horiz-adv-x="1593" d="M100 1055q4 -29 6.5 -72t2.5 -100v-883h253v639q0 43 11.5 84t33 71.5t53.5 49t75 18.5q72 0 103.5 -49t31.5 -147v-666h254v639q0 43 11 84t32.5 71.5t53.5 49t75 18.5q72 0 103.5 -49t31.5 -147v-666h254v651q0 96 -15.5 174t-50.5 132.5t-93 84t-144 29.5 q-59 0 -103.5 -16.5t-78 -41t-58 -54t-43.5 -56.5q-12 20 -29.5 50t-48 55.5t-76 44t-112.5 18.5q-55 0 -98 -17.5t-75 -43t-55.5 -58t-37.5 -63.5h-5q0 41 -3 83t-5 83h-254z" />
<glyph unicode="n" horiz-adv-x="1062" d="M106 1055q4 -35 6.5 -80t2.5 -94v-881h254v614q0 51 9 96.5t30.5 79t56.5 53t84 19.5q78 0 111.5 -53t33.5 -176v-633h254v680q0 80 -15 150.5t-51 125t-95.5 85t-149.5 30.5q-66 0 -112 -18.5t-78.5 -46t-54 -58t-36.5 -55.5h2h-6q0 41 -3 81t-5 81h-238z" />
<glyph unicode="o" horiz-adv-x="1099" d="M86 528q0 -166 42 -271t109.5 -166.5t150.5 -84t163 -22.5t163 22.5t149.5 84t108.5 166.5t42 271q0 162 -42 266.5t-108.5 166t-149.5 86t-163 24.5t-163 -24.5t-150.5 -86t-109.5 -166t-42 -266.5zM348 528q0 66 8.5 131.5t32 116.5t62 83t100.5 32q61 0 100 -32 t61.5 -83t31 -116.5t8.5 -131.5t-8.5 -131t-31 -117.5t-61.5 -84t-100 -31.5t-100 31.5t-62.5 84t-32 117.5t-8.5 131z" />
<glyph unicode="p" horiz-adv-x="1099" d="M111 1055q4 -29 6 -76t2 -105v-1316h254v594h4q14 -31 36.5 -61t56.5 -54.5t78 -38.5t101 -14q172 0 268.5 142t96.5 402q0 111 -21.5 209.5t-65.5 172t-115 117.5t-169 44q-61 0 -107.5 -15.5t-79 -41t-56 -58t-38.5 -65.5h-6q0 53 -2 97t-6 67h-237zM373 524 q0 74 10 139.5t33.5 114.5t62.5 78t94 29q111 0 149 -91.5t38 -275.5q0 -158 -42 -253t-149 -95q-53 0 -90 26.5t-60.5 73.5t-34.5 111.5t-11 142.5z" />
<glyph unicode="q" horiz-adv-x="1099" d="M86 528q0 -260 96.5 -402t268.5 -142q57 0 101 14t78 38.5t56.5 54.5t36.5 61h4v-594h254v1316q0 57 2 104.5t6 76.5h-237q-4 -23 -6.5 -67t-2.5 -97h-6q-16 33 -38.5 65.5t-55.5 58t-79 41t-107 15.5q-98 0 -169 -44t-115 -117.5t-65.5 -172t-21.5 -209.5zM340 518 q0 184 38 275.5t148 91.5q55 0 94 -29t63 -78t34 -114.5t10 -139.5q0 -78 -11 -142.5t-35 -111.5t-61.5 -73.5t-89.5 -26.5q-106 0 -148 95t-42 253z" />
<glyph unicode="r" horiz-adv-x="720" d="M115 1055q4 -35 6 -80t2 -94v-881h254v578q0 74 19.5 124t51 79.5t70.5 43t78 13.5q35 0 72 -11v238l-21 4q-10 2 -22 2q-59 0 -104.5 -21.5t-78 -52t-53 -67.5t-33.5 -68h-4q0 47 -3 96.5t-5 96.5h-229z" />
<glyph unicode="s" horiz-adv-x="833" d="M74 35q41 -16 117.5 -33.5t175.5 -17.5q86 0 157.5 21.5t123.5 61t82 97t30 131.5q0 45 -12.5 81t-37 66.5t-61.5 59t-86 59.5l-125 80q-55 35 -87 63.5t-32 71.5q0 47 34 75t112 28q70 0 123 -14.5t100 -33.5l14 197q-18 6 -89.5 24.5t-174.5 18.5q-84 0 -151.5 -26.5 t-114.5 -68.5t-72.5 -95.5t-25.5 -108.5q0 -61 19.5 -107.5t52 -80t71.5 -59t80 -50.5l104 -61q70 -41 91.5 -72t21.5 -61q0 -61 -47 -83t-117 -22q-45 0 -86 8.5t-75.5 20.5t-61.5 23.5t-41 17.5z" />
<glyph unicode="t" horiz-adv-x="720" d="M41 868h168v-577q0 -166 76.5 -236.5t218.5 -70.5q57 0 99 10t71 24v181q-14 -8 -38 -15.5t-58 -7.5q-55 0 -85 30t-30 116v546h211v187h-211v295l-254 -78v-217h-168v-187z" />
<glyph unicode="u" horiz-adv-x="1062" d="M115 375q0 -80 15 -150.5t51 -125t95.5 -85t149.5 -30.5q61 0 106.5 16t78 43t55 58.5t41.5 60.5l-2 2l6 -2q0 -41 3 -81t5 -81h237q-4 35 -6 80t-2 94v881h-254v-604q0 -51 -8 -97.5t-28.5 -82t-53.5 -57t-84 -21.5q-80 0 -115.5 53t-35.5 176v633h-254v-680z" />
<glyph unicode="v" horiz-adv-x="985" d="M20 1055l322 -1055h299l324 1055h-246l-217 -813h-4l-215 813h-263z" />
<glyph unicode="w" horiz-adv-x="1517" d="M10 1055l285 -1055h278l185 821h4l188 -821h277l280 1055h-245l-170 -822h-5l-174 822h-288l-179 -822h-4l-170 822h-262z" />
<glyph unicode="x" horiz-adv-x="948" d="M4 0h270l195 391l195 -391h280l-317 569l293 486h-263l-174 -338l-166 338h-286l291 -486z" />
<glyph unicode="y" horiz-adv-x="948" d="M10 1055l350 -1065l-18 -90q-25 -82 -54 -119q-28 -35 -81 -35h-6q-29 0 -51.5 6t-45.5 15l-14 -195q29 -10 70 -18.5t92 -8.5q63 0 112.5 19.5t85 53.5t61.5 80t42 101l385 1256h-246l-203 -797h-4l-213 797h-262z" />
<glyph unicode="z" horiz-adv-x="833" d="M57 0h719v193h-457l443 645v217h-690v-193h436l-451 -643v-219z" />
<glyph unicode="{" horiz-adv-x="681" d="M70 502q33 0 64.5 -14.5t57 -41t42 -67.5t16.5 -92v-373q0 -63 20.5 -111.5t52 -81t73.5 -49t85 -16.5h160v143h-92q-31 0 -51.5 13.5t-31.5 36t-15.5 50t-4.5 56.5v364q0 74 -20 122t-49 76t-59.5 40t-51.5 14v4q20 4 51 17.5t60 42.5t49 74t20 112v371q0 29 4.5 56.5 t15.5 50t31.5 36t51.5 13.5h92v143h-160q-43 0 -85 -16.5t-73.5 -49t-52 -81t-20.5 -111.5v-383q0 -49 -16.5 -87t-42 -63.5t-57.5 -40t-64 -14.5v-143z" />
<glyph unicode="|" horiz-adv-x="454" d="M137 -512h180v2048h-180v-2048z" />
<glyph unicode="}" horiz-adv-x="681" d="M41 -201v-143h160q43 0 85 16.5t73.5 49t52 80.5t20.5 112v383q0 49 16.5 87t42 63.5t57.5 40t64 14.5v143q-33 0 -64.5 14.5t-57 41t-42 66.5t-16.5 93v373q0 63 -20.5 111.5t-52 81t-73.5 49t-85 16.5h-160v-143h92q31 0 51.5 -13.5t31.5 -36t15.5 -50t4.5 -56.5v-365 q0 -74 20 -122t49 -75.5t59.5 -39.5t51.5 -15v-4q-20 -4 -51 -17t-60 -42t-49 -74t-20 -112v-371q0 -29 -4.5 -56.5t-15.5 -50t-31.5 -36t-51.5 -13.5h-92z" />
<glyph unicode="~" horiz-adv-x="1228" d="M141 498l74 -144q35 53 77 99.5t103 46.5q51 0 104.5 -20.5t108.5 -47.5q55 -25 111.5 -46t111.5 -21q51 0 91.5 17t71 44t53 57.5t40.5 55.5l-73 143q-35 -53 -77 -99t-103 -46q-49 0 -104.5 21.5t-113.5 45.5q-57 27 -112 47.5t-107 20.5q-51 0 -91 -16.5t-70.5 -41 t-53.5 -55t-41 -61.5z" />
<glyph unicode="&#xa1;" horiz-adv-x="757" d="M248 -375h262l-33 1008h-196zM256 797h246v258h-246v-258z" />
<glyph unicode="&#xa2;" horiz-adv-x="1064" d="M160 526q0 -96 20.5 -182t63.5 -154.5t109.5 -119t158.5 -70.5l-39 -262h102l37 246q72 0 148 9t145 34l-14 200q-27 -16 -80 -33.5t-100 -17.5q-37 0 -68 8l105 690q37 -6 69.5 -20t59.5 -27l14 201q-20 8 -50 18.5t-67 16.5l37 242h-102l-35 -234h-4q-133 0 -229.5 -43 t-159 -116.5t-92 -173t-29.5 -212.5zM422 524q0 154 53 246t170 109l-98 -654q-63 45 -94 123t-31 176z" />
<glyph unicode="&#xa3;" horiz-adv-x="1064" d="M111 0h843v201h-460v479h317v160h-317v112q0 63 9 118.5t33.5 97.5t67.5 65.5t111 23.5q70 0 117 -11t106 -36l16 203q-59 14 -124.5 25.5t-131.5 11.5q-145 0 -232 -46t-133 -119t-61.5 -161t-15.5 -170v-114h-145v-160h145v-479h-145v-201z" />
<glyph unicode="&#xa4;" horiz-adv-x="1064" d="M41 326l102 -103l107 107q59 -45 132 -69.5t150 -24.5q80 0 152 24.5t131 69.5l107 -107l102 103l-106 106q45 59 69.5 131t24.5 152t-24.5 151.5t-69.5 130.5l106 107l-102 102l-107 -106q-59 45 -131 69.5t-152 24.5q-78 0 -150.5 -24.5t-131.5 -69.5l-107 106 l-102 -102l106 -107q-45 -57 -69.5 -129.5t-24.5 -152.5t24.5 -151.5t69.5 -131.5zM213 715q0 68 24.5 127t67.5 104t101.5 70.5t125.5 25.5q68 0 126.5 -25.5t101.5 -70.5t67.5 -104.5t24.5 -126.5q0 -68 -24.5 -127.5t-67.5 -104.5t-101.5 -70.5t-126.5 -25.5t-126 25.5 t-101 70.5t-67.5 104.5t-24.5 127.5z" />
<glyph unicode="&#xa5;" horiz-adv-x="1064" d="M18 1430l322 -672h-242v-152h312v-155h-312v-152h312v-299h245v299h312v152h-312v155h312v152h-238l318 672h-263l-252 -572l-251 572h-263z" />
<glyph unicode="&#xa6;" horiz-adv-x="454" d="M137 -358h180v716h-180v-716zM137 666h180v716h-180v-716z" />
<glyph unicode="&#xa7;" horiz-adv-x="1062" d="M141 625q0 -102 57.5 -171t143.5 -122l137 -84q76 -47 117 -86t41 -101q0 -68 -51 -103.5t-123 -35.5q-45 0 -88 10.5t-82 23.5t-71 28.5t-52 25.5l-23 -200q18 -8 50 -20.5t75 -25t95.5 -20.5t109.5 -8q106 0 184 27.5t129.5 73.5t76 106.5t24.5 126.5q0 90 -42 148 t-87 91q27 27 55.5 58.5t52 69.5t38 81t14.5 92q0 59 -20.5 104.5t-54.5 79t-76 61.5t-87 52l-109 64q-72 41 -111.5 81t-39.5 91q0 53 41 87t108 34q86 0 149.5 -23.5t111.5 -46.5l22 197q-35 16 -116 37.5t-191 21.5q-88 0 -155.5 -23.5t-114 -63.5t-70 -92t-23.5 -112 q0 -90 42 -157.5t96 -110.5q-25 -14 -55.5 -39t-59.5 -59.5t-48.5 -76.5t-19.5 -91zM362 651q0 33 7.5 58.5t19.5 45t28 35.5l29 29l95 -53q43 -25 73.5 -47.5t49 -45t27.5 -50t9 -62.5q0 -59 -21.5 -95t-49.5 -71l-113 62q-66 37 -110 86t-44 108z" />
<glyph unicode="&#xa8;" horiz-adv-x="454" d="M-43 1235h197v225h-197v-225zM301 1235h197v225h-197v-225z" />
<glyph unicode="&#xa9;" horiz-adv-x="1638" d="M84 715q0 -152 57.5 -286t157.5 -234.5t234.5 -157.5t285.5 -57q152 0 286 57t233.5 157.5t157.5 234.5t58 286t-58 286t-157.5 233t-233.5 157.5t-286 58.5t-286 -58.5t-234 -157.5t-157.5 -233t-57.5 -286zM256 715q0 121 44 227.5t120 185t178 124.5t221 46t221.5 -46 t178 -124.5t119.5 -185t44 -227.5t-44 -227.5t-119.5 -185.5t-178 -125t-221.5 -46t-221 46t-178 125t-120 185.5t-44 227.5zM420 715q0 -96 27.5 -178t81 -141.5t131 -94.5t178.5 -35q63 0 124.5 20.5t109.5 60.5t80 99.5t40 137.5h-152q-10 -82 -64 -128t-138 -46 q-61 0 -109.5 23.5t-81.5 64.5t-50 97t-17 124q0 63 16 117.5t48 94.5t79 62.5t111 22.5q80 0 135 -44t71 -118h152q-8 78 -40 135.5t-81 95t-110.5 56t-129.5 18.5q-98 0 -174.5 -33.5t-129 -93t-80 -141.5t-27.5 -176z" />
<glyph unicode="&#xaa;" horiz-adv-x="720" d="M68 983q0 -45 18 -79t48 -56.5t70 -33.5t83 -11q76 0 119 25.5t73 64.5h6q0 -23 2 -44.5t7 -37.5h159q-4 23 -7 48.5t-3 60.5v276q0 59 -11 106.5t-41 80t-81 50t-129 17.5q-88 0 -141.5 -15.5t-87.5 -31.5l10 -123q23 18 74 34.5t112 16.5q66 0 94.5 -30.5t28.5 -73.5 v-23h-29q-80 0 -148.5 -11t-118.5 -37t-78.5 -69t-28.5 -104zM240 1001q0 29 18 49.5t49 34t70 19.5t80 6h14v-29q0 -78 -29.5 -123t-99.5 -45q-47 0 -74.5 22.5t-27.5 65.5z" />
<glyph unicode="&#xab;" horiz-adv-x="1062" d="M127 530l217 -424h205l-201 424l201 424h-205zM489 530l218 -424h204l-200 424l200 424h-204z" />
<glyph unicode="&#xac;" horiz-adv-x="1228" d="M96 643h856v-430h181v610h-1037v-180z" />
<glyph unicode="&#xad;" horiz-adv-x="645" d="M86 477h473v209h-473v-209z" />
<glyph unicode="&#xae;" horiz-adv-x="1638" d="M84 715q0 -152 57.5 -286t157.5 -234.5t234.5 -157.5t285.5 -57q152 0 286 57t233.5 157.5t157.5 234.5t58 286t-58 286t-157.5 233t-233.5 157.5t-286 58.5t-286 -58.5t-234 -157.5t-157.5 -233t-57.5 -286zM256 715q0 121 44 227.5t120 185t178 124.5t221 46t221.5 -46 t178 -124.5t119.5 -185t44 -227.5t-44 -227.5t-119.5 -185.5t-178 -125t-221.5 -46t-221 46t-178 125t-120 185.5t-44 227.5zM530 301h160v334h86l211 -334h180l-223 340q104 16 159.5 77.5t55.5 170.5q0 70 -17.5 117t-57.5 76.5t-103 43t-156 13.5h-295v-838zM690 770v234 h156q74 0 113.5 -20.5t39.5 -88.5q0 -78 -40.5 -101.5t-108.5 -23.5h-160z" />
<glyph unicode="&#xaf;" horiz-adv-x="454" d="M-57 1247h569v152h-569v-152z" />
<glyph unicode="&#x2c9;" horiz-adv-x="454" d="M-57 1247h569v152h-569v-152z" />
<glyph unicode="&#xb0;" horiz-adv-x="819" d="M117 1157q0 -61 22.5 -114.5t62.5 -93.5t93 -62.5t115 -22.5q61 0 114.5 22.5t93 62.5t62 93.5t22.5 114.5t-22.5 114.5t-62 93.5t-93 62.5t-114.5 22.5t-114.5 -22.5t-93.5 -62.5t-62.5 -93.5t-22.5 -114.5zM260 1157q0 61 44 105.5t106 44.5q61 0 105 -44t44 -106 q0 -61 -44 -105t-105 -44t-105.5 44t-44.5 105z" />
<glyph unicode="&#xb1;" horiz-adv-x="1228" d="M96 0h1037v180h-1037v-180zM96 555h428v-301h181v301h428v180h-428v301h-181v-301h-428v-180z" />
<glyph unicode="&#xb2;" horiz-adv-x="692" d="M76 578h536v151h-305l15 16q57 55 111 116t94 121t64.5 120.5t24.5 118.5q0 47 -14 89t-46 72.5t-84 49t-128 18.5q-96 0 -151.5 -16.5t-88.5 -32.5l15 -152q25 14 65.5 36t112.5 22q55 0 89 -34t34 -95q0 -41 -24.5 -88.5t-64.5 -96.5t-90.5 -102t-99.5 -107l-65 -69 v-137z" />
<glyph unicode="&#xb3;" horiz-adv-x="692" d="M61 606q47 -14 103.5 -25.5t130.5 -11.5q66 0 125 15.5t104 48.5t72 80t27 112q0 57 -18.5 93t-48.5 58.5t-64.5 34t-67.5 19.5v4q23 2 53.5 12.5t59 33t48 59.5t19.5 94q0 106 -77.5 161.5t-200.5 55.5q-86 0 -142.5 -13.5t-93.5 -23.5l12 -141q43 18 89.5 30.5 t91.5 12.5q57 0 99 -25.5t42 -79.5q0 -41 -18.5 -65.5t-44 -39.5t-54 -20.5t-49.5 -5.5q-45 0 -72 11v-138q25 8 72 9q31 0 60.5 -5.5t53 -19.5t39 -38t15.5 -60q0 -59 -45 -96t-117 -37q-68 0 -115 15t-77 28z" />
<glyph unicode="&#xb4;" horiz-adv-x="454" d="M106 1171h160l209 295h-237z" />
<glyph unicode="&#xb5;" horiz-adv-x="1062" d="M115 -442h254v450q31 -25 75 -24q49 0 90 16t73 42t56.5 57.5t43.5 62.5l-2 2l6 -2q0 -41 3 -81t5 -81h237q-4 35 -6 80t-2 94v881h-254v-604q0 -51 -8 -97.5t-28.5 -82t-53.5 -57t-84 -21.5q-80 0 -115.5 53t-35.5 176v633h-254v-1497z" />
<glyph unicode="&#x3bc;" horiz-adv-x="1062" d="M115 -442h254v450q31 -25 75 -24q49 0 90 16t73 42t56.5 57.5t43.5 62.5l-2 2l6 -2q0 -41 3 -81t5 -81h237q-4 35 -6 80t-2 94v881h-254v-604q0 -51 -8 -97.5t-28.5 -82t-53.5 -57t-84 -21.5q-80 0 -115.5 53t-35.5 176v633h-254v-1497z" />
<glyph unicode="&#xb6;" horiz-adv-x="1228" d="M88 1049q0 -94 31 -164t81 -115t112.5 -66.5t125.5 -21.5v-926h197v1522h217v-1522h197v1674h-529q-84 0 -162.5 -20.5t-138 -66t-95.5 -118t-36 -176.5z" />
<glyph unicode="&#xb7;" horiz-adv-x="530" d="M109 582q0 -66 46 -112t111 -46q66 0 112 46t46 112t-46 111.5t-112 45.5t-111.5 -45.5t-45.5 -111.5z" />
<glyph unicode="&#xb8;" horiz-adv-x="454" d="M12 -414q31 -16 90.5 -28.5t124.5 -12.5q37 0 78 11.5t74 35t54.5 58.5t21.5 84q0 66 -46.5 108.5t-132.5 42.5q-27 0 -45 -4t-34 -8l41 127h-91l-63 -180l37 -35q14 6 32.5 10t47.5 4q41 0 67.5 -20.5t26.5 -54.5q0 -37 -27.5 -60.5t-79.5 -23.5q-47 0 -79.5 9t-63.5 19 z" />
<glyph unicode="&#xb9;" horiz-adv-x="692" d="M98 1253l90 -114l123 108v-669h181v858h-164z" />
<glyph unicode="&#xba;" horiz-adv-x="720" d="M49 1126q0 -96 28.5 -158.5t74 -99.5t100.5 -51t108 -14t108.5 14t100.5 51t74 99.5t29 158.5t-29 159t-74 99.5t-100 51t-109 14.5q-53 0 -108 -14.5t-100.5 -51t-74 -99.5t-28.5 -159zM229 1126q0 39 6.5 77t21.5 65.5t40 45t63 17.5q39 0 64 -17.5t40 -45t21.5 -65.5 t6.5 -77q0 -41 -6.5 -77.5t-21.5 -64.5t-40 -45t-64 -17t-63.5 17t-39.5 45t-21.5 64.5t-6.5 77.5z" />
<glyph unicode="&#xbb;" horiz-adv-x="1062" d="M152 106h204l217 424l-217 424h-204l200 -424zM514 106h205l217 424l-217 424h-205l201 -424z" />
<glyph unicode="&#xbc;" horiz-adv-x="1593" d="M61 1253l91 -114l122 108v-669h181v858h-164zM360 -70h160l641 1569h-160zM889 170h366v-170h172v170h105v135h-105v553h-221l-317 -536v-152zM1024 305l227 393h4v-393h-231z" />
<glyph unicode="&#xbd;" horiz-adv-x="1593" d="M61 1253l91 -114l122 108v-669h181v858h-164zM350 -70h160l641 1569h-160zM991 -2h537v152h-305l14 16q57 55 111.5 115.5t94.5 121t64.5 121t24.5 117.5q0 47 -14.5 89t-46 73t-84 49t-127.5 18q-96 0 -151.5 -16t-88.5 -33l14 -151q25 14 66 35.5t112 21.5q55 0 89 -34 t34 -95q0 -41 -24.5 -88t-64.5 -96t-90 -102.5t-99 -106.5l-66 -70v-137z" />
<glyph unicode="&#xbe;" horiz-adv-x="1593" d="M61 606q47 -14 103.5 -25.5t130.5 -11.5q66 0 125 15.5t104 48.5t72 80t27 112q0 57 -18.5 93t-48.5 58.5t-64.5 34t-67.5 19.5v4q23 2 53.5 12.5t59 33t48 59.5t19.5 94q0 106 -77.5 161.5t-200.5 55.5q-86 0 -142.5 -13.5t-93.5 -23.5l12 -141q43 18 89.5 30.5 t91.5 12.5q57 0 99 -25.5t42 -79.5q0 -41 -18.5 -65.5t-44 -39.5t-54 -20.5t-49.5 -5.5q-45 0 -72 11v-138q25 8 72 9q31 0 60.5 -5.5t53 -19.5t39 -38t15.5 -60q0 -59 -45 -96t-117 -37q-68 0 -115 15t-77 28zM408 -70h159l641 1569h-159zM889 170h366v-170h172v170h105 v135h-105v553h-221l-317 -536v-152zM1024 305l227 393h4v-393h-231z" />
<glyph unicode="&#xbf;" horiz-adv-x="948" d="M90 -51q0 -76 27.5 -139.5t80 -108.5t129 -70.5t175.5 -25.5q111 0 193.5 21.5t113.5 33.5l-12 223q-31 -20 -96.5 -44.5t-139.5 -24.5q-86 0 -147.5 52t-61.5 154q0 72 37 136.5t82 128.5q47 66 85 131t38 139v82h-221v-29q0 -80 -44 -154.5t-98 -154.5 q-53 -78 -97 -164t-44 -186zM360 797h246v258h-246v-258z" />
<glyph unicode="&#xc0;" horiz-adv-x="1251" d="M12 0h262l103 344h491l101 -344h270l-461 1430h-286zM432 545l197 667h4l180 -667h-381zM379 1792l208 -295h160l-131 295h-237z" />
<glyph unicode="&#xc1;" horiz-adv-x="1251" d="M12 0h262l103 344h491l101 -344h270l-461 1430h-286zM432 545l197 667h4l180 -667h-381zM505 1497h160l209 295h-237z" />
<glyph unicode="&#xc2;" horiz-adv-x="1251" d="M12 0h262l103 344h491l101 -344h270l-461 1430h-286zM432 545l197 667h4l180 -667h-381zM331 1497h181l112 179l111 -179h186l-182 295h-221z" />
<glyph unicode="&#xc3;" horiz-adv-x="1251" d="M12 0h262l103 344h491l101 -344h270l-461 1430h-286zM432 545l197 667h4l180 -667h-381zM319 1520h119q0 33 18.5 56.5t57.5 23.5q27 0 55.5 -11.5t57 -23.5t57 -23.5t59.5 -11.5q57 0 94 29t58.5 68.5t30 79.5t8.5 63h-127q0 -31 -14.5 -55.5t-45.5 -24.5 q-23 0 -49.5 11t-56 23.5t-62.5 24t-67 11.5q-57 -2 -95 -30t-59.5 -66t-30 -77.5t-8.5 -66.5z" />
<glyph unicode="&#xc4;" horiz-adv-x="1251" d="M12 0h262l103 344h491l101 -344h270l-461 1430h-286zM432 545l197 667h4l180 -667h-381zM356 1561h197v225h-197v-225zM700 1561h197v225h-197v-225z" />
<glyph unicode="&#xc5;" horiz-adv-x="1251" d="M12 0h262l103 344h491l101 -344h270l-461 1430h-286zM432 545l197 667h4l180 -667h-381zM424 1706q0 -45 17.5 -85t47 -69.5t69.5 -47t85 -17.5t85 17.5t70 47t47 69.5t17 85t-17 85t-47 69.5t-70 47t-85 17.5t-85 -17.5t-69.5 -47t-47 -69.5t-17.5 -85zM527 1706 q0 47 34.5 82t81.5 35t82 -35t35 -82t-35 -82t-82 -35t-81.5 35t-34.5 82z" />
<glyph unicode="&#xc6;" horiz-adv-x="1705" d="M16 0h279l158 344h417v-344h725v209h-479v422h434v209h-434v381h461v209h-879zM539 545l325 704h6v-704h-331z" />
<glyph unicode="&#xc7;" horiz-adv-x="1138" d="M94 715q0 -139 33 -261t98.5 -217.5t162.5 -159t226 -85.5l-61 -172l37 -35q14 6 32.5 10t47.5 4q41 0 67.5 -20.5t26.5 -54.5q0 -37 -27.5 -60.5t-79.5 -23.5q-47 0 -79.5 9t-63.5 19l-33 -82q31 -16 90.5 -28.5t124.5 -12.5q37 0 78 11.5t74 35t54.5 58.5t21.5 84 q0 66 -46.5 108.5t-132.5 42.5q-27 0 -45 -4t-34 -8l34 109q12 -2 25 -2h27q98 0 183 14t126 37l-14 239q-45 -33 -110 -53t-161 -20q-82 0 -154.5 28.5t-128 91t-88 160.5t-32.5 238q0 139 32.5 237.5t88 161t128 91t154.5 28.5q100 0 165 -28.5t106 -49.5l14 236 q-41 16 -124 37.5t-194 21.5q-160 0 -281.5 -56.5t-202.5 -154.5t-123 -233t-42 -291z" />
<glyph unicode="&#xc8;" d="M152 0h772v209h-510v422h463v209h-463v381h489v209h-751v-1430zM285 1792l208 -295h160l-131 295h-237z" />
<glyph unicode="&#xc9;" d="M152 0h772v209h-510v422h463v209h-463v381h489v209h-751v-1430zM411 1497h160l209 295h-237z" />
<glyph unicode="&#xca;" d="M152 0h772v209h-510v422h463v209h-463v381h489v209h-751v-1430zM237 1497h181l112 179l111 -179h186l-182 295h-221z" />
<glyph unicode="&#xcb;" d="M152 0h772v209h-510v422h463v209h-463v381h489v209h-751v-1430zM262 1561h197v225h-197v-225zM606 1561h197v225h-197v-225z" />
<glyph unicode="&#xcc;" horiz-adv-x="569" d="M154 0h262v1430h-262v-1430zM37 1792l208 -295h160l-131 295h-237z" />
<glyph unicode="&#xcd;" horiz-adv-x="569" d="M154 0h262v1430h-262v-1430zM163 1497h160l209 295h-237z" />
<glyph unicode="&#xce;" horiz-adv-x="569" d="M154 0h262v1430h-262v-1430zM-11 1497h181l112 179l111 -179h186l-182 295h-221z" />
<glyph unicode="&#xcf;" horiz-adv-x="569" d="M154 0h262v1430h-262v-1430zM14 1561h197v225h-197v-225zM358 1561h197v225h-197v-225z" />
<glyph unicode="&#xd0;" horiz-adv-x="1290" d="M0 651h139v-651h373q150 0 274.5 44t216 133t142.5 223.5t51 314.5q0 356 -173 535.5t-511 179.5h-373v-607h-139v-172zM401 201v450h267v172h-267v406h88q111 0 192 -36t133 -103.5t78 -163t26 -211.5q0 -117 -26 -212t-78 -163t-133 -103.5t-192 -35.5h-88z" />
<glyph unicode="&#xd1;" horiz-adv-x="1327" d="M150 0h237v1114h4l473 -1114h314v1430h-238v-1123h-4l-475 1123h-311v-1430zM356 1520h119q0 33 18.5 56.5t57.5 23.5q27 0 55.5 -11.5t57 -23.5t57 -23.5t59.5 -11.5q57 0 94 29t58.5 68.5t30 79.5t8.5 63h-127q0 -31 -14.5 -55.5t-45.5 -24.5q-23 0 -49.5 11t-56 23.5 t-62.5 24t-67 11.5q-57 -2 -95 -30t-59.5 -66t-30 -77.5t-8.5 -66.5z" />
<glyph unicode="&#xd2;" horiz-adv-x="1327" d="M94 715q0 -193 47 -332t126 -228t182.5 -132t214.5 -43t214 43t182 132t126 228t47 332t-47 332t-126 228t-182.5 132t-213.5 43q-111 0 -214.5 -43t-182.5 -132t-126 -228t-47 -332zM365 715q0 147 23.5 249.5t63.5 165t95 91t117 28.5q61 0 116.5 -28.5t95 -91 t63.5 -165t24 -249.5t-24 -250t-63.5 -165t-95 -91t-116.5 -29t-116.5 29t-95.5 91t-63.5 165t-23.5 250zM416 1792l208 -295h160l-131 295h-237z" />
<glyph unicode="&#xd3;" horiz-adv-x="1327" d="M94 715q0 -193 47 -332t126 -228t182.5 -132t214.5 -43t214 43t182 132t126 228t47 332t-47 332t-126 228t-182.5 132t-213.5 43q-111 0 -214.5 -43t-182.5 -132t-126 -228t-47 -332zM365 715q0 147 23.5 249.5t63.5 165t95 91t117 28.5q61 0 116.5 -28.5t95 -91 t63.5 -165t24 -249.5t-24 -250t-63.5 -165t-95 -91t-116.5 -29t-116.5 29t-95.5 91t-63.5 165t-23.5 250zM542 1497h160l209 295h-237z" />
<glyph unicode="&#xd4;" horiz-adv-x="1327" d="M94 715q0 -193 47 -332t126 -228t182.5 -132t214.5 -43t214 43t182 132t126 228t47 332t-47 332t-126 228t-182.5 132t-213.5 43q-111 0 -214.5 -43t-182.5 -132t-126 -228t-47 -332zM365 715q0 147 23.5 249.5t63.5 165t95 91t117 28.5q61 0 116.5 -28.5t95 -91 t63.5 -165t24 -249.5t-24 -250t-63.5 -165t-95 -91t-116.5 -29t-116.5 29t-95.5 91t-63.5 165t-23.5 250zM368 1497h181l112 179l111 -179h186l-182 295h-221z" />
<glyph unicode="&#xd5;" horiz-adv-x="1327" d="M94 715q0 -193 47 -332t126 -228t182.5 -132t214.5 -43t214 43t182 132t126 228t47 332t-47 332t-126 228t-182.5 132t-213.5 43q-111 0 -214.5 -43t-182.5 -132t-126 -228t-47 -332zM365 715q0 147 23.5 249.5t63.5 165t95 91t117 28.5q61 0 116.5 -28.5t95 -91 t63.5 -165t24 -249.5t-24 -250t-63.5 -165t-95 -91t-116.5 -29t-116.5 29t-95.5 91t-63.5 165t-23.5 250zM356 1520h119q0 33 18.5 56.5t57.5 23.5q27 0 55.5 -11.5t57 -23.5t57 -23.5t59.5 -11.5q57 0 94 29t58.5 68.5t30 79.5t8.5 63h-127q0 -31 -14.5 -55.5t-45.5 -24.5 q-23 0 -49.5 11t-56 23.5t-62.5 24t-67 11.5q-57 -2 -95 -30t-59.5 -66t-30 -77.5t-8.5 -66.5z" />
<glyph unicode="&#xd6;" horiz-adv-x="1327" d="M94 715q0 -193 47 -332t126 -228t182.5 -132t214.5 -43t214 43t182 132t126 228t47 332t-47 332t-126 228t-182.5 132t-213.5 43q-111 0 -214.5 -43t-182.5 -132t-126 -228t-47 -332zM365 715q0 147 23.5 249.5t63.5 165t95 91t117 28.5q61 0 116.5 -28.5t95 -91 t63.5 -165t24 -249.5t-24 -250t-63.5 -165t-95 -91t-116.5 -29t-116.5 29t-95.5 91t-63.5 165t-23.5 250zM393 1561h197v225h-197v-225zM737 1561h197v225h-197v-225z" />
<glyph unicode="&#xd7;" horiz-adv-x="1228" d="M139 170l127 -127l348 350l349 -350l127 127l-349 348l349 348l-127 127l-349 -348l-348 348l-127 -127l348 -348z" />
<glyph unicode="&#xd8;" horiz-adv-x="1327" d="M51 27l82 -64l146 182q78 -86 177 -125.5t208 -39.5q111 0 214 43t182 132t126 228t47 332q0 156 -32 275.5t-87 209.5l162 203l-82 63l-145 -182q-78 86 -177.5 126t-207.5 40q-111 0 -214.5 -43t-182.5 -132t-126 -228.5t-47 -331.5q0 -158 32 -278t87 -208zM365 715 q0 147 23.5 249.5t63.5 165t95 91t117 28.5q72 0 131 -35.5t100 -121.5l-504 -637q-12 51 -19 116.5t-7 143.5zM432 340l504 635q27 -104 27 -260q0 -147 -24 -250t-63.5 -165t-95 -91t-116.5 -29q-72 0 -131.5 37t-100.5 123z" />
<glyph unicode="&#xd9;" horiz-adv-x="1251" d="M139 504q0 -141 38 -240.5t104.5 -163t154.5 -92t191 -28.5q100 0 188 28.5t154.5 92t104.5 162.5t38 241v926h-262v-926q0 -178 -55.5 -247t-167.5 -69q-115 0 -170.5 69t-55.5 247v926h-262v-926zM379 1792l208 -295h160l-131 295h-237z" />
<glyph unicode="&#xda;" horiz-adv-x="1251" d="M139 504q0 -141 38 -240.5t104.5 -163t154.5 -92t191 -28.5q100 0 188 28.5t154.5 92t104.5 162.5t38 241v926h-262v-926q0 -178 -55.5 -247t-167.5 -69q-115 0 -170.5 69t-55.5 247v926h-262v-926zM505 1497h160l209 295h-237z" />
<glyph unicode="&#xdb;" horiz-adv-x="1251" d="M139 504q0 -141 38 -240.5t104.5 -163t154.5 -92t191 -28.5q100 0 188 28.5t154.5 92t104.5 162.5t38 241v926h-262v-926q0 -178 -55.5 -247t-167.5 -69q-115 0 -170.5 69t-55.5 247v926h-262v-926zM331 1497h181l112 179l111 -179h186l-182 295h-221z" />
<glyph unicode="&#xdc;" horiz-adv-x="1251" d="M139 504q0 -141 38 -240.5t104.5 -163t154.5 -92t191 -28.5q100 0 188 28.5t154.5 92t104.5 162.5t38 241v926h-262v-926q0 -178 -55.5 -247t-167.5 -69q-115 0 -170.5 69t-55.5 247v926h-262v-926zM356 1561h197v225h-197v-225zM700 1561h197v225h-197v-225z" />
<glyph unicode="&#xdd;" horiz-adv-x="1138" d="M16 1430l422 -857v-573h262v567l422 863h-282l-262 -572l-279 572h-283zM448 1497h160l209 295h-237z" />
<glyph unicode="&#xde;" horiz-adv-x="1062" d="M139 0h262v332h148q223 0 335.5 115.5t112.5 320.5t-112.5 319.5t-335.5 114.5h-148v228h-262v-1430zM401 532v469h99q123 0 179 -58t56 -175t-56 -176.5t-179 -59.5h-99z" />
<glyph unicode="&#xdf;" horiz-adv-x="1099" d="M115 0h245v1149q0 109 42 167t130 58q86 0 129.5 -60.5t43.5 -158.5q0 -88 -24 -139t-56.5 -77t-69.5 -32t-63 -6v-192q33 0 75.5 -7.5t81.5 -35t66.5 -84t27.5 -154.5q0 -111 -44 -181.5t-148 -70.5q-23 0 -42.5 5t-29.5 12l-12 -187q18 -12 51 -17t72 -5 q106 0 185 32.5t130 92t76 144.5t25 187q0 74 -21.5 139.5t-59.5 115.5t-92.5 82t-119.5 38v4q33 12 74.5 31.5t77.5 58.5t60.5 101.5t24.5 160.5q0 84 -24.5 155t-75.5 123t-127 82t-178 30q-98 0 -177 -27t-135.5 -83t-87 -142t-30.5 -203v-1106z" />
<glyph unicode="&#xe0;" d="M59 293q0 -74 27 -131.5t70 -97t100 -60t119 -20.5q113 0 180.5 47t114.5 112h4q0 -39 2 -75.5t12 -67.5h230q-4 31 -9.5 80t-5.5 106v461q0 98 -17.5 177t-61.5 134.5t-122.5 84t-201.5 28.5q-121 0 -201 -26.5t-133 -51.5l14 -205q18 14 48 33t68 34t82 25.5t91 10.5 q55 0 92 -16.5t60.5 -44t34 -64.5t10.5 -76v-39h-52q-121 0 -222 -15t-175 -56t-116 -111t-42 -176zM297 317q0 115 91 157t255 42h23v-59q0 -141 -46.5 -221t-160.5 -80q-74 0 -118 44.5t-44 116.5zM265 1466l208 -295h160l-131 295h-237z" />
<glyph unicode="&#xe1;" d="M59 293q0 -74 27 -131.5t70 -97t100 -60t119 -20.5q113 0 180.5 47t114.5 112h4q0 -39 2 -75.5t12 -67.5h230q-4 31 -9.5 80t-5.5 106v461q0 98 -17.5 177t-61.5 134.5t-122.5 84t-201.5 28.5q-121 0 -201 -26.5t-133 -51.5l14 -205q18 14 48 33t68 34t82 25.5t91 10.5 q55 0 92 -16.5t60.5 -44t34 -64.5t10.5 -76v-39h-52q-121 0 -222 -15t-175 -56t-116 -111t-42 -176zM297 317q0 115 91 157t255 42h23v-59q0 -141 -46.5 -221t-160.5 -80q-74 0 -118 44.5t-44 116.5zM391 1171h160l209 295h-237z" />
<glyph unicode="&#xe2;" d="M59 293q0 -74 27 -131.5t70 -97t100 -60t119 -20.5q113 0 180.5 47t114.5 112h4q0 -39 2 -75.5t12 -67.5h230q-4 31 -9.5 80t-5.5 106v461q0 98 -17.5 177t-61.5 134.5t-122.5 84t-201.5 28.5q-121 0 -201 -26.5t-133 -51.5l14 -205q18 14 48 33t68 34t82 25.5t91 10.5 q55 0 92 -16.5t60.5 -44t34 -64.5t10.5 -76v-39h-52q-121 0 -222 -15t-175 -56t-116 -111t-42 -176zM297 317q0 115 91 157t255 42h23v-59q0 -141 -46.5 -221t-160.5 -80q-74 0 -118 44.5t-44 116.5zM217 1171h181l112 179l111 -179h186l-182 295h-221z" />
<glyph unicode="&#xe3;" d="M59 293q0 -74 27 -131.5t70 -97t100 -60t119 -20.5q113 0 180.5 47t114.5 112h4q0 -39 2 -75.5t12 -67.5h230q-4 31 -9.5 80t-5.5 106v461q0 98 -17.5 177t-61.5 134.5t-122.5 84t-201.5 28.5q-121 0 -201 -26.5t-133 -51.5l14 -205q18 14 48 33t68 34t82 25.5t91 10.5 q55 0 92 -16.5t60.5 -44t34 -64.5t10.5 -76v-39h-52q-121 0 -222 -15t-175 -56t-116 -111t-42 -176zM297 317q0 115 91 157t255 42h23v-59q0 -141 -46.5 -221t-160.5 -80q-74 0 -118 44.5t-44 116.5zM205 1194h119q0 33 18.5 56.5t57.5 23.5q27 0 55.5 -11.5t57 -23.5 t57 -23.5t59.5 -11.5q57 0 94 29t58.5 68.5t30 79.5t8.5 63h-127q0 -31 -14.5 -55.5t-45.5 -24.5q-23 0 -49.5 11t-56 23.5t-62.5 24t-67 11.5q-57 -2 -95 -30t-59.5 -66t-30 -77.5t-8.5 -66.5z" />
<glyph unicode="&#xe4;" d="M59 293q0 -74 27 -131.5t70 -97t100 -60t119 -20.5q113 0 180.5 47t114.5 112h4q0 -39 2 -75.5t12 -67.5h230q-4 31 -9.5 80t-5.5 106v461q0 98 -17.5 177t-61.5 134.5t-122.5 84t-201.5 28.5q-121 0 -201 -26.5t-133 -51.5l14 -205q18 14 48 33t68 34t82 25.5t91 10.5 q55 0 92 -16.5t60.5 -44t34 -64.5t10.5 -76v-39h-52q-121 0 -222 -15t-175 -56t-116 -111t-42 -176zM297 317q0 115 91 157t255 42h23v-59q0 -141 -46.5 -221t-160.5 -80q-74 0 -118 44.5t-44 116.5zM242 1235h197v225h-197v-225zM586 1235h197v225h-197v-225z" />
<glyph unicode="&#xe5;" d="M59 293q0 -74 27 -131.5t70 -97t100 -60t119 -20.5q113 0 180.5 47t114.5 112h4q0 -39 2 -75.5t12 -67.5h230q-4 31 -9.5 80t-5.5 106v461q0 98 -17.5 177t-61.5 134.5t-122.5 84t-201.5 28.5q-121 0 -201 -26.5t-133 -51.5l14 -205q18 14 48 33t68 34t82 25.5t91 10.5 q55 0 92 -16.5t60.5 -44t34 -64.5t10.5 -76v-39h-52q-121 0 -222 -15t-175 -56t-116 -111t-42 -176zM297 317q0 115 91 157t255 42h23v-59q0 -141 -46.5 -221t-160.5 -80q-74 0 -118 44.5t-44 116.5zM334 1360q0 -45 17.5 -85t47 -69.5t69.5 -47t85 -17.5t85 17.5t70 47 t47 69.5t17 85t-17 85t-47 69.5t-70 47t-85 17.5t-85 -17.5t-69.5 -47t-47 -69.5t-17.5 -85zM437 1360q0 47 34.5 82t81.5 35t82 -35t35 -82t-35 -82t-82 -35t-81.5 35t-34.5 82z" />
<glyph unicode="&#xe6;" horiz-adv-x="1589" d="M80 293q0 -74 26.5 -131.5t69.5 -97t100.5 -60t118.5 -20.5q137 0 216 53t143 151h4q37 -98 127 -151t252 -53q115 0 194.5 25.5t120.5 41.5l-12 201q-35 -27 -97.5 -54.5t-179.5 -27.5q-141 0 -200.5 77t-61.5 212h608v49q0 162 -33.5 269.5t-92 173t-134 93 t-162.5 27.5q-100 0 -167.5 -38t-112.5 -105q-78 143 -285 143q-121 0 -200.5 -26.5t-133.5 -51.5l15 -205q18 14 48 33t66.5 34t79.5 25.5t90 10.5t80 -16.5t54.5 -44t32 -62.5t10.5 -72v-45h-48q-115 0 -212 -15t-169.5 -56t-113.5 -111t-41 -176zM317 317q0 57 22.5 95.5 t64.5 62t98.5 32.5t124.5 9h37v-59q0 -141 -44.5 -221t-142.5 -80q-72 0 -116 44.5t-44 116.5zM901 618q0 51 10.5 102.5t33 90.5t58 63.5t84.5 24.5q176 0 177 -281h-363z" />
<glyph unicode="&#xe7;" horiz-adv-x="872" d="M86 526q0 -100 22.5 -189t70.5 -161t123 -120t179 -64l-61 -172l37 -35q14 6 32.5 10t47.5 4q41 0 67.5 -20.5t26.5 -54.5q0 -37 -28 -60.5t-79 -23.5q-47 0 -79.5 9t-63.5 19l-33 -82q31 -16 90.5 -28.5t124.5 -12.5q37 0 78 11.5t74 35t54.5 58.5t21.5 84 q0 66 -46.5 108.5t-132.5 42.5q-27 0 -45 -4t-35 -8l37 111h13q78 0 141 13t108 30l-14 200q-27 -16 -80 -33.5t-100 -17.5q-74 0 -128 26.5t-90 74t-53.5 111t-17.5 136.5q0 170 65.5 262.5t211.5 92.5q53 0 98 -17.5t80 -34.5l14 201q-35 14 -98.5 28.5t-122.5 14.5 q-133 0 -229.5 -43t-159 -116.5t-92 -173t-29.5 -212.5z" />
<glyph unicode="&#xe8;" d="M86 512q0 -106 28.5 -202.5t88 -168t151.5 -114.5t219 -43q115 0 195 25.5t121 41.5l-12 201q-35 -27 -97.5 -54.5t-179.5 -27.5q-147 0 -207.5 77t-60.5 212h610v49q0 162 -34 269.5t-92 173t-134 93t-162 27.5q-100 0 -181 -43t-137.5 -118.5t-86 -177t-29.5 -220.5z M332 618q0 51 10 102.5t33.5 90.5t59.5 63.5t85 24.5q176 0 176 -281h-364zM265 1466l208 -295h160l-131 295h-237z" />
<glyph unicode="&#xe9;" d="M86 512q0 -106 28.5 -202.5t88 -168t151.5 -114.5t219 -43q115 0 195 25.5t121 41.5l-12 201q-35 -27 -97.5 -54.5t-179.5 -27.5q-147 0 -207.5 77t-60.5 212h610v49q0 162 -34 269.5t-92 173t-134 93t-162 27.5q-100 0 -181 -43t-137.5 -118.5t-86 -177t-29.5 -220.5z M332 618q0 51 10 102.5t33.5 90.5t59.5 63.5t85 24.5q176 0 176 -281h-364zM391 1171h160l209 295h-237z" />
<glyph unicode="&#xea;" d="M86 512q0 -106 28.5 -202.5t88 -168t151.5 -114.5t219 -43q115 0 195 25.5t121 41.5l-12 201q-35 -27 -97.5 -54.5t-179.5 -27.5q-147 0 -207.5 77t-60.5 212h610v49q0 162 -34 269.5t-92 173t-134 93t-162 27.5q-100 0 -181 -43t-137.5 -118.5t-86 -177t-29.5 -220.5z M332 618q0 51 10 102.5t33.5 90.5t59.5 63.5t85 24.5q176 0 176 -281h-364zM217 1171h181l112 179l111 -179h186l-182 295h-221z" />
<glyph unicode="&#xeb;" d="M86 512q0 -106 28.5 -202.5t88 -168t151.5 -114.5t219 -43q115 0 195 25.5t121 41.5l-12 201q-35 -27 -97.5 -54.5t-179.5 -27.5q-147 0 -207.5 77t-60.5 212h610v49q0 162 -34 269.5t-92 173t-134 93t-162 27.5q-100 0 -181 -43t-137.5 -118.5t-86 -177t-29.5 -220.5z M332 618q0 51 10 102.5t33.5 90.5t59.5 63.5t85 24.5q176 0 176 -281h-364zM242 1235h197v225h-197v-225zM586 1235h197v225h-197v-225z" />
<glyph unicode="&#xec;" horiz-adv-x="532" d="M139 0h254v1055h-254v-1055zM19 1466l208 -295h160l-131 295h-237z" />
<glyph unicode="&#xed;" horiz-adv-x="532" d="M139 0h254v1055h-254v-1055zM145 1171h160l209 295h-237z" />
<glyph unicode="&#xee;" horiz-adv-x="532" d="M139 0h254v1055h-254v-1055zM-29 1171h181l112 179l111 -179h186l-182 295h-221z" />
<glyph unicode="&#xef;" horiz-adv-x="532" d="M139 0h254v1055h-254v-1055zM-4 1235h197v225h-197v-225zM340 1235h197v225h-197v-225z" />
<glyph unicode="&#xf0;" horiz-adv-x="1099" d="M86 528q0 -166 42 -271t109.5 -166.5t150.5 -84t163 -22.5t163 22.5t149.5 87t108.5 181t42 303.5q0 197 -31 337t-77 237t-97 156.5t-92 96.5l151 78l-67 78l-172 -88q-41 29 -87 52t-87 36l-162 -101q33 -10 78 -31.5t80 -48.5l-158 -82l67 -77l177 90q23 -18 51 -56 t56 -84.5t51.5 -96.5t33.5 -95l-4 -4q-29 39 -73 67.5t-122 28.5q-74 0 -151.5 -24.5t-143 -86t-107.5 -166t-42 -266.5zM348 528q0 66 8.5 131.5t32 116.5t62 83t100.5 32q61 0 100 -32t61.5 -83t31 -116.5t8.5 -131.5t-8.5 -131t-31 -117.5t-61.5 -84t-100 -31.5 t-100 31.5t-62.5 84t-32 117.5t-8.5 131z" />
<glyph unicode="&#xf1;" horiz-adv-x="1062" d="M106 1055q4 -35 6.5 -80t2.5 -94v-881h254v614q0 51 9 96.5t30.5 79t56.5 53t84 19.5q78 0 111.5 -53t33.5 -176v-633h254v680q0 80 -15 150.5t-51 125t-95.5 85t-149.5 30.5q-66 0 -112 -18.5t-78.5 -46t-54 -58t-36.5 -55.5h2h-6q0 41 -3 81t-5 81h-238zM225 1194h119 q0 33 18.5 56.5t57.5 23.5q27 0 55.5 -11.5t57 -23.5t57 -23.5t59.5 -11.5q57 0 94 29t58.5 68.5t30 79.5t8.5 63h-127q0 -31 -14.5 -55.5t-45.5 -24.5q-23 0 -49.5 11t-56 23.5t-62.5 24t-67 11.5q-57 -2 -95 -30t-59.5 -66t-30 -77.5t-8.5 -66.5z" />
<glyph unicode="&#xf2;" horiz-adv-x="1099" d="M86 528q0 -166 42 -271t109.5 -166.5t150.5 -84t163 -22.5t163 22.5t149.5 84t108.5 166.5t42 271q0 162 -42 266.5t-108.5 166t-149.5 86t-163 24.5t-163 -24.5t-150.5 -86t-109.5 -166t-42 -266.5zM348 528q0 66 8.5 131.5t32 116.5t62 83t100.5 32q61 0 100 -32 t61.5 -83t31 -116.5t8.5 -131.5t-8.5 -131t-31 -117.5t-61.5 -84t-100 -31.5t-100 31.5t-62.5 84t-32 117.5t-8.5 131zM304 1466l208 -295h160l-131 295h-237z" />
<glyph unicode="&#xf3;" horiz-adv-x="1099" d="M86 528q0 -166 42 -271t109.5 -166.5t150.5 -84t163 -22.5t163 22.5t149.5 84t108.5 166.5t42 271q0 162 -42 266.5t-108.5 166t-149.5 86t-163 24.5t-163 -24.5t-150.5 -86t-109.5 -166t-42 -266.5zM348 528q0 66 8.5 131.5t32 116.5t62 83t100.5 32q61 0 100 -32 t61.5 -83t31 -116.5t8.5 -131.5t-8.5 -131t-31 -117.5t-61.5 -84t-100 -31.5t-100 31.5t-62.5 84t-32 117.5t-8.5 131zM430 1171h160l209 295h-237z" />
<glyph unicode="&#xf4;" horiz-adv-x="1099" d="M86 528q0 -166 42 -271t109.5 -166.5t150.5 -84t163 -22.5t163 22.5t149.5 84t108.5 166.5t42 271q0 162 -42 266.5t-108.5 166t-149.5 86t-163 24.5t-163 -24.5t-150.5 -86t-109.5 -166t-42 -266.5zM348 528q0 66 8.5 131.5t32 116.5t62 83t100.5 32q61 0 100 -32 t61.5 -83t31 -116.5t8.5 -131.5t-8.5 -131t-31 -117.5t-61.5 -84t-100 -31.5t-100 31.5t-62.5 84t-32 117.5t-8.5 131zM256 1171h181l112 179l111 -179h186l-182 295h-221z" />
<glyph unicode="&#xf5;" horiz-adv-x="1099" d="M86 528q0 -166 42 -271t109.5 -166.5t150.5 -84t163 -22.5t163 22.5t149.5 84t108.5 166.5t42 271q0 162 -42 266.5t-108.5 166t-149.5 86t-163 24.5t-163 -24.5t-150.5 -86t-109.5 -166t-42 -266.5zM348 528q0 66 8.5 131.5t32 116.5t62 83t100.5 32q61 0 100 -32 t61.5 -83t31 -116.5t8.5 -131.5t-8.5 -131t-31 -117.5t-61.5 -84t-100 -31.5t-100 31.5t-62.5 84t-32 117.5t-8.5 131zM244 1194h119q0 33 18.5 56.5t57.5 23.5q27 0 55.5 -11.5t57 -23.5t57 -23.5t59.5 -11.5q57 0 94 29t58.5 68.5t30 79.5t8.5 63h-127q0 -31 -14.5 -55.5 t-45.5 -24.5q-23 0 -49.5 11t-56 23.5t-62.5 24t-67 11.5q-57 -2 -95 -30t-59.5 -66t-30 -77.5t-8.5 -66.5z" />
<glyph unicode="&#xf6;" horiz-adv-x="1099" d="M86 528q0 -166 42 -271t109.5 -166.5t150.5 -84t163 -22.5t163 22.5t149.5 84t108.5 166.5t42 271q0 162 -42 266.5t-108.5 166t-149.5 86t-163 24.5t-163 -24.5t-150.5 -86t-109.5 -166t-42 -266.5zM348 528q0 66 8.5 131.5t32 116.5t62 83t100.5 32q61 0 100 -32 t61.5 -83t31 -116.5t8.5 -131.5t-8.5 -131t-31 -117.5t-61.5 -84t-100 -31.5t-100 31.5t-62.5 84t-32 117.5t-8.5 131zM281 1235h197v225h-197v-225zM625 1235h197v225h-197v-225z" />
<glyph unicode="&#xf7;" horiz-adv-x="1228" d="M96 428h1037v180h-1037v-180zM457 94q0 -66 46 -111.5t111 -45.5q66 0 112 46t46 111q0 66 -46 112t-112 46t-111.5 -46t-45.5 -112zM457 942q0 -66 46 -112t111 -46q66 0 112 46.5t46 111.5q0 66 -46 112t-112 46t-111.5 -46t-45.5 -112z" />
<glyph unicode="&#xf8;" horiz-adv-x="1099" d="M86 16l74 -57l94 119q63 -53 141 -73.5t156 -20.5q80 0 163 22.5t149.5 84t108.5 166.5t42 271q0 131 -29 224.5t-76 154.5l105 131l-74 58l-96 -121q-66 53 -141.5 74.5t-151.5 21.5q-80 0 -163 -24.5t-150.5 -86t-109.5 -166t-42 -266.5q0 -131 27.5 -224t74.5 -159z M348 528q0 66 8.5 131.5t32 116.5t62 83t100.5 32q55 0 92 -26.5t59 -69.5l-340 -428q-8 39 -11 79.5t-3 81.5zM399 260l338 428q8 -37 11.5 -78t3.5 -82q0 -66 -8.5 -131t-31 -117.5t-61.5 -84t-100 -31.5q-55 0 -92 26.5t-60 69.5z" />
<glyph unicode="&#xf9;" horiz-adv-x="1062" d="M115 375q0 -80 15 -150.5t51 -125t95.5 -85t149.5 -30.5q61 0 106.5 16t78 43t55 58.5t41.5 60.5l-2 2l6 -2q0 -41 3 -81t5 -81h237q-4 35 -6 80t-2 94v881h-254v-604q0 -51 -8 -97.5t-28.5 -82t-53.5 -57t-84 -21.5q-80 0 -115.5 53t-35.5 176v633h-254v-680zM285 1466 l208 -295h160l-131 295h-237z" />
<glyph unicode="&#xfa;" horiz-adv-x="1062" d="M115 375q0 -80 15 -150.5t51 -125t95.5 -85t149.5 -30.5q61 0 106.5 16t78 43t55 58.5t41.5 60.5l-2 2l6 -2q0 -41 3 -81t5 -81h237q-4 35 -6 80t-2 94v881h-254v-604q0 -51 -8 -97.5t-28.5 -82t-53.5 -57t-84 -21.5q-80 0 -115.5 53t-35.5 176v633h-254v-680zM411 1171 h160l209 295h-237z" />
<glyph unicode="&#xfb;" horiz-adv-x="1062" d="M115 375q0 -80 15 -150.5t51 -125t95.5 -85t149.5 -30.5q61 0 106.5 16t78 43t55 58.5t41.5 60.5l-2 2l6 -2q0 -41 3 -81t5 -81h237q-4 35 -6 80t-2 94v881h-254v-604q0 -51 -8 -97.5t-28.5 -82t-53.5 -57t-84 -21.5q-80 0 -115.5 53t-35.5 176v633h-254v-680zM237 1171 h181l112 179l111 -179h186l-182 295h-221z" />
<glyph unicode="&#xfc;" horiz-adv-x="1062" d="M115 375q0 -80 15 -150.5t51 -125t95.5 -85t149.5 -30.5q61 0 106.5 16t78 43t55 58.5t41.5 60.5l-2 2l6 -2q0 -41 3 -81t5 -81h237q-4 35 -6 80t-2 94v881h-254v-604q0 -51 -8 -97.5t-28.5 -82t-53.5 -57t-84 -21.5q-80 0 -115.5 53t-35.5 176v633h-254v-680zM262 1235 h197v225h-197v-225zM606 1235h197v225h-197v-225z" />
<glyph unicode="&#xfd;" horiz-adv-x="948" d="M10 1055l350 -1065l-18 -90q-25 -82 -54 -119q-28 -35 -81 -35h-6q-29 0 -51.5 6t-45.5 15l-14 -195q29 -10 70 -18.5t92 -8.5q63 0 112.5 19.5t85 53.5t61.5 80t42 101l385 1256h-246l-203 -797h-4l-213 797h-262zM354 1171h160l209 295h-237z" />
<glyph unicode="&#xfe;" horiz-adv-x="1099" d="M119 -442h254v594h4q14 -31 36.5 -61t56.5 -54.5t78 -38.5t101 -14q172 0 268.5 142t96.5 402q0 111 -21.5 209.5t-65.5 172t-115 117.5t-169 44q-55 0 -98 -15.5t-76 -41t-55.5 -58t-36.5 -65.5h-4v645h-254v-1978zM373 524q0 74 10 139.5t33.5 114.5t62.5 78t94 29 q111 0 149 -91.5t38 -275.5q0 -158 -42 -253t-149 -95q-53 0 -90 26.5t-60.5 73.5t-34.5 111.5t-11 142.5z" />
<glyph unicode="&#xff;" horiz-adv-x="948" d="M10 1055l350 -1065l-18 -90q-25 -82 -54 -119q-28 -35 -81 -35h-6q-29 0 -51.5 6t-45.5 15l-14 -195q29 -10 70 -18.5t92 -8.5q63 0 112.5 19.5t85 53.5t61.5 80t42 101l385 1256h-246l-203 -797h-4l-213 797h-262zM205 1235h197v225h-197v-225zM549 1235h197v225h-197 v-225z" />
<glyph unicode="&#x131;" horiz-adv-x="532" d="M139 0h254v1055h-254v-1055z" />
<glyph unicode="&#x152;" horiz-adv-x="1705" d="M94 713q0 -139 28 -269.5t95.5 -231.5t180 -162.5t282.5 -61.5q35 0 66.5 2t64.5 4q68 6 129 6h676v209h-488v422h439v209h-439v381h467v209h-587q-35 0 -72 2t-72 4q-74 6 -145 6q-158 0 -275.5 -54.5t-195.5 -151.5t-116 -231t-38 -292zM373 715q0 104 14 200.5t51 168 t101.5 114.5t167.5 43q39 0 79.5 -5t79.5 -15v-1012q-31 -10 -68.5 -15.5t-72.5 -5.5q-109 0 -176.5 43t-107.5 115t-54 168.5t-14 200.5z" />
<glyph unicode="&#x153;" horiz-adv-x="1669" d="M86 528q0 -166 42 -271t109.5 -166.5t150.5 -84t163 -22.5q51 0 101 12t95.5 36.5t79 59.5t52.5 78q18 -31 45.5 -64.5t69.5 -60.5t100.5 -44t136.5 -17q115 0 194.5 25.5t120.5 41.5l-12 201q-35 -27 -97.5 -54.5t-179.5 -27.5q-147 0 -207.5 77t-60.5 212h610v49 q0 162 -33.5 269.5t-92 173t-134 93t-161.5 27.5q-211 0 -308 -190q-25 55 -61.5 92t-79.5 58.5t-89 30.5t-89 9q-80 0 -163 -24.5t-150.5 -86t-109.5 -166t-42 -266.5zM348 528q0 66 8.5 131.5t32 116.5t62 83t100.5 32q61 0 100 -32t61.5 -83t31 -116.5t8.5 -131.5 t-8.5 -131t-31 -117.5t-61.5 -84t-100 -31.5t-100 31.5t-62.5 84t-32 117.5t-8.5 131zM989 618q0 51 10.5 102.5t34 90.5t59 63.5t85.5 24.5q176 0 176 -281h-365z" />
<glyph unicode="&#x178;" horiz-adv-x="1138" d="M16 1430l422 -857v-573h262v567l422 863h-282l-262 -572l-279 572h-283zM299 1561h197v225h-197v-225zM643 1561h197v225h-197v-225z" />
<glyph unicode="&#x2c6;" horiz-adv-x="454" d="M-68 1171h181l112 179l111 -179h186l-182 295h-221z" />
<glyph unicode="&#x2da;" horiz-adv-x="454" d="M8 1360q0 -45 17.5 -85t47 -69.5t69.5 -47t85 -17.5t85 17.5t70 47t47 69.5t17 85t-17 85t-47 69.5t-70 47t-85 17.5t-85 -17.5t-69.5 -47t-47 -69.5t-17.5 -85zM111 1360q0 47 34.5 82t81.5 35t82 -35t35 -82t-35 -82t-82 -35t-81.5 35t-34.5 82z" />
<glyph unicode="&#x2dc;" horiz-adv-x="454" d="M-80 1194h119q0 33 18.5 56.5t57.5 23.5q27 0 55.5 -11.5t57 -23.5t57 -23.5t59.5 -11.5q57 0 94 29t58.5 68.5t30 79.5t8.5 63h-127q0 -31 -14.5 -55.5t-45.5 -24.5q-23 0 -49.5 11t-56 23.5t-62.5 24t-67 11.5q-57 -2 -95 -30t-59.5 -66t-30 -77.5t-8.5 -66.5z" />
<glyph unicode="&#x2000;" horiz-adv-x="962" />
<glyph unicode="&#x2001;" horiz-adv-x="1925" />
<glyph unicode="&#x2002;" horiz-adv-x="962" />
<glyph unicode="&#x2003;" horiz-adv-x="1925" />
<glyph unicode="&#x2004;" horiz-adv-x="641" />
<glyph unicode="&#x2005;" horiz-adv-x="481" />
<glyph unicode="&#x2006;" horiz-adv-x="319" />
<glyph unicode="&#x2007;" horiz-adv-x="319" />
<glyph unicode="&#x2008;" horiz-adv-x="239" />
<glyph unicode="&#x2009;" horiz-adv-x="385" />
<glyph unicode="&#x200a;" horiz-adv-x="106" />
<glyph unicode="&#x2010;" horiz-adv-x="645" d="M86 477h473v209h-473v-209z" />
<glyph unicode="&#x2011;" horiz-adv-x="645" d="M86 477h473v209h-473v-209z" />
<glyph unicode="&#x2012;" horiz-adv-x="645" d="M86 477h473v209h-473v-209z" />
<glyph unicode="&#x2013;" d="M0 492h1024v180h-1024v-180z" />
<glyph unicode="&#x2014;" horiz-adv-x="2048" d="M0 492h2048v180h-2048v-180z" />
<glyph unicode="&#x2018;" horiz-adv-x="532" d="M90 1028h246l106 508h-196z" />
<glyph unicode="&#x2019;" horiz-adv-x="532" d="M90 1028h197l155 508h-245z" />
<glyph unicode="&#x201a;" horiz-adv-x="532" d="M66 -246h196l156 508h-246z" />
<glyph unicode="&#x201c;" horiz-adv-x="1062" d="M174 1028h246l106 508h-196zM537 1028h245l107 508h-197z" />
<glyph unicode="&#x201d;" horiz-adv-x="1062" d="M174 1028h197l155 508h-245zM537 1028h196l156 508h-246z" />
<glyph unicode="&#x201e;" horiz-adv-x="1062" d="M174 -246h197l155 508h-245zM537 -246h196l156 508h-246z" />
<glyph unicode="&#x2022;" d="M154 715q0 -74 27.5 -139.5t76.5 -114.5t114.5 -77t139.5 -28t139.5 28t114.5 77t76.5 114.5t27.5 139.5t-27.5 139.5t-76.5 114.5t-114.5 76.5t-139.5 27.5t-139.5 -27.5t-114.5 -76.5t-76.5 -114.5t-27.5 -139.5z" />
<glyph unicode="&#x2026;" horiz-adv-x="2048" d="M219 0h246v266h-246v-266zM901 0h246v266h-246v-266zM1583 0h246v266h-246v-266z" />
<glyph unicode="&#x202f;" horiz-adv-x="385" />
<glyph unicode="&#x2039;" horiz-adv-x="606" d="M78 530l217 -424h205l-201 424l201 424h-205z" />
<glyph unicode="&#x203a;" horiz-adv-x="606" d="M106 106h205l217 424l-217 424h-205l201 -424z" />
<glyph unicode="&#x205f;" horiz-adv-x="481" />
<glyph unicode="&#x2122;" horiz-adv-x="2048" d="M106 1278h261v-700h159v700h260v152h-680v-152zM987 578h160v651h4l240 -651h127l239 651h4v-651h160v852h-246l-219 -576l-223 576h-246v-852z" />
<glyph unicode="&#xe000;" horiz-adv-x="1055" d="M0 1055h1055v-1055h-1055v1055z" />
<glyph unicode="&#xfb01;" horiz-adv-x="1175" d="M20 868h177v-868h254v868h192v187h-192v182q0 59 32.5 95t87.5 36q29 0 53.5 -5t47.5 -11l10 184q-37 8 -84 16.5t-98 8.5q-86 0 -144.5 -25t-94.5 -64.5t-50 -92t-14 -109.5v-215h-177v-187zM778 1253h262v250h-262v-250zM782 0h254v1055h-254v-1055z" />
<glyph unicode="&#xfb02;" horiz-adv-x="1175" d="M20 868h177v-868h254v868h192v187h-192v182q0 59 32.5 95t87.5 36q29 0 53.5 -5t47.5 -11l10 184q-37 8 -84 16.5t-98 8.5q-86 0 -144.5 -25t-94.5 -64.5t-50 -92t-14 -109.5v-215h-177v-187zM782 0h254v1536h-254v-1536z" />
<glyph unicode="&#xfb03;" horiz-adv-x="1896" d="M1499 1253h262v250h-262v-250zM1503 0h254v1055h-254v-1055zM702 868h177v-868h254v868h192v187h-192v182q0 59 32.5 95t87.5 36q29 0 53.5 -5t47.5 -11l10 184q-37 8 -84 16.5t-98 8.5q-86 0 -144.5 -25t-94.5 -64.5t-50 -92t-14 -109.5v-215h-177v-187zM20 868h177 v-868h254v868h192v187h-192v182q0 59 32.5 95t87.5 36q29 0 53.5 -5t47.5 -11l10 184q-37 8 -84 16.5t-98 8.5q-86 0 -144.5 -25t-94.5 -64.5t-50 -92t-14 -109.5v-215h-177v-187z" />
<glyph unicode="&#xfb04;" horiz-adv-x="1896" d="M1503 0h254v1536h-254v-1536zM702 868h177v-868h254v868h192v187h-192v182q0 59 32.5 95t87.5 36q29 0 53.5 -5t47.5 -11l10 184q-37 8 -84 16.5t-98 8.5q-86 0 -144.5 -25t-94.5 -64.5t-50 -92t-14 -109.5v-215h-177v-187zM20 868h177v-868h254v868h192v187h-192v182 q0 59 32.5 95t87.5 36q29 0 53.5 -5t47.5 -11l10 184q-37 8 -84 16.5t-98 8.5q-86 0 -144.5 -25t-94.5 -64.5t-50 -92t-14 -109.5v-215h-177v-187z" />
</font>
</defs>
</svg>
